<svg xmlns="http://www.w3.org/2000/svg" width="960" height="360" viewBox="0 0 960 360" role="img" aria-labelledby="title desc">
  <title id="title">heetae</title>
  <desc id="desc">A snowboarder in an orange jacket rides down a snowy slope in front of mountain peaks, beside the name heetae.</desc>
  <defs>
    <pattern id="grid" width="36" height="36" patternUnits="userSpaceOnUse">
      <path d="M 36 0 H 0 V 36" fill="none" stroke="#e0e8f0" stroke-width="1" />
    </pattern>
  </defs>
  <rect width="960" height="360" fill="#f3f7fa" />
  <rect width="960" height="360" fill="url(#grid)" />
  <g fill="#7795af" font-family="Consolas, Menlo, monospace" font-size="19">
    <text x="18" y="30">+</text><text x="923" y="30">+</text><text x="18" y="345">+</text><text x="923" y="345">+</text>
  </g>
  <text x="55" y="151" fill="#6b8298" font-family="Consolas, Menlo, monospace" font-size="17">@heetae-L</text>
  <text x="55" y="225" fill="#355570" font-family="Consolas, Menlo, monospace" font-size="69" letter-spacing="-5">heetae</text>
  <text x="304" y="225" fill="#7196b2" font-family="Consolas, Menlo, monospace" font-size="69">_</text>
  <path d="M 542 290 L 579 240 L 612 204 L 650 245 L 701 306 Z" fill="#cbd9e7" />
  <path d="M 579 240 L 612 204 L 650 245 L 635 237 L 614 247 L 601 230 L 591 248 Z" fill="#eaf1f7" />
  <path d="M 586 325 L 656 250 L 711 170 L 760 96 L 813 171 L 864 242 L 923 313 Z" fill="#96b2cc" />
  <path d="M 760 96 L 813 171 L 864 242 L 923 313 L 780 286 L 765 219 L 739 178 L 767 157 L 745 136 Z" fill="#7192b4" />
  <path d="M 677 215 L 711 170 L 760 96 L 813 171 L 849 219 L 812 207 L 797 215 L 778 184 L 758 211 L 741 189 L 718 229 L 701 208 Z" fill="#fbfdff" />
  <path d="M 0 246 C 100 247 220 269 336 296 C 458 326 621 337 960 349 L 960 360 L 0 360 Z" fill="#aec5d9" />
  <path d="M 0 253 C 100 253 220 276 336 303 C 458 332 621 344 960 355 L 960 360 L 0 360 Z" fill="#fbfdff" />
  <path d="M 568 288 C 606 294 639 306 680 311" fill="none" stroke="#9db9d1" stroke-width="2" opacity="0.7" />
  <path d="M 904 46 H 931 V 53 H 938 V 73 H 931 V 80 H 904 V 73 H 897 V 53 H 904 Z" fill="#c4d4e2" />
  <g transform="translate(742 166) scale(1.70) rotate(14 38 55)">
    <path d="M 10 23 L 34 16 L 37 23 L 12 31 Z" fill="#c98255" />
    <rect x="5" y="24" width="9" height="7" fill="#27374b" />
    <path d="M 29 15 L 50 15 L 48 33 L 44 43 L 29 40 L 27 27 Z" fill="#c98255" />
    <path d="M 43 21 L 65 26 L 63 33 L 42 28 Z" fill="#c98255" />
    <rect x="62" y="27" width="9" height="7" fill="#27374b" />
    <rect x="41" y="11" width="9" height="8" fill="#27374b" />
    <path d="M 42 0 H 52 L 56 4 V 13 H 39 V 4 Z" fill="#27374b" />
    <path d="M 46 5 H 58 V 10 H 46 Z" fill="#e4bb72" />
    <path d="M 28 38 H 48 L 59 45 L 55 56 H 45 L 49 48 L 39 45 L 31 57 H 20 Z" fill="#27374b" />
    <rect x="18" y="53" width="15" height="7" fill="#27374b" />
    <rect x="44" y="53" width="16" height="7" fill="#27374b" />
    <path d="M 0 58 L 8 62 H 69 L 76 58 V 65 L 70 69 H 7 L 0 65 Z" fill="#294d6f" />
    <path d="M 7 66 H 70" stroke="#bf764b" stroke-width="3" />
  </g>
  <g fill="#fbfdff"><rect x="754" y="305" width="4" height="4"/><rect x="734" y="293" width="6" height="6"/><rect x="717" y="283" width="5" height="5"/><rect x="703" y="294" width="4" height="4"/><rect x="687" y="300" width="4" height="4"/><rect x="674" y="289" width="3" height="3"/><rect x="711" y="313" width="3" height="3"/></g>
</svg>

